{"title":"The Karen Carpenter Story 1989-TV x264 AC3 - MaryJane","uid":10685238,"size":763687027,"categoryP":"video","categoryS":"movies","magnet":"?xt=urn:btih:7dfe15eb2fa2e89357967d2e755134f2c50888af&amp;dn=The+Karen+Carpenter+Story+1989-TV+x264+AC3+-+MaryJane&amp;tr=udp%3A%2F%2Ftracker.openbittorrent.com%3A80&amp;tr=udp%3A%2F%2Fopen.demonii.com%3A1337&amp;tr=udp%3A%2F%2Ftracker.coppersurfer.tk%3A6969&amp;tr=udp%3A%2F%2Fexodus.desync.com%3A6969","seeders":4,"leechers":3,"uploader":"ali1997a","files":7,"time":1407074000,"description":"SilverTorrent - Clean And Verified Torrents Download\n\n\n\n &lt;a href=&quot;\nhttp://lookpic.com/O/i2/211/5mikws7M.jpeg&quot; rel=&quot;nofollow&quot; target=&quot;_NEW&quot;&gt;\nhttp://lookpic.com/O/i2/211/5mikws7M.jpeg&lt;/a&gt;\n\nINFO\n\n\nGeneral\nComplete name                            : The Karen Carpenter Story (1989-TV) x264 AC3 - MaryJane.mp4\nFormat                                   : MPEG-4\nFormat profile                           : Base Media\nCodec ID                                 : isom\nFile size                                : 713 MiB\nDuration                                 : 1h 28mn\nOverall bit rate                         : 1 130 Kbps\nWriting application                      : Lavf53.18.0\n\nVideo\nID                                       : 1\nFormat                                   : AVC\nFormat/Info                              : Advanced Video Codec\nFormat profile                           : &lt;a class=&quot;__cf_email__&quot; href=&quot;/cdn-cgi/l/email-protection&quot; data-cfemail=&quot;8ecceffdebe2e7e0ebcec2bda0be&quot;&gt;[email&amp;#160;protected]&lt;/a&gt;&lt;script cf-hash='f9e31' type=&quot;text/javascript&quot;&gt;\n/* &lt;![CDATA[ */!function(){try{var t=&quot;currentScript&quot;in document?document.currentScript:function(){for(var t=document.getElementsByTagName(&quot;script&quot;),e=t.length;e--;)if(t[e].getAttribute(&quot;cf-hash&quot;))return t[e]}();if(t&amp;&amp;t.previousSibling){var e,r,n,i,c=t.previousSibling,a=c.getAttribute(&quot;data-cfemail&quot;);if(a){for(e=&quot;&quot;,r=parseInt(a.substr(0,2),16),n=2;a.length-n;n+=2)i=parseInt(a.substr(n,2),16)^r,e+=String.fromCharCode(i);e=document.createTextNode(e),c.parentNode.replaceChild(e,c)}}}catch(u){}}();/* ]]&gt; */&lt;/script&gt;\nFormat settings, CABAC                   : No\nFormat settings, ReFrames                : 1 frame\nCodec ID                                 : avc1\nCodec ID/Info                            : Advanced Video Coding\nDuration                                 : 1h 28mn\nBit rate                                 : 1 000 Kbps\nWidth                                    : 560 pixels\nHeight                                   : 416 pixels\nDisplay aspect ratio                     : 4:3\nFrame rate mode                          : Constant\nFrame rate                               : 25.000 fps\nColor space                              : YUV\nChroma subsampling                       : 4:2:0\nBit depth                                : 8 bits\nScan type                                : Progressive\nBits/(Pixel*Frame)                       : 0.172\nStream size                              : 631 MiB (88%)\nWriting library                          : x264 core 119\n\nAudio\nID                                       : 2\nFormat                                   : AC-3\nFormat/Info                              : Audio Coding 3\nMode extension                           : CM (complete main)\nFormat settings, Endianness              : Big\nCodec ID                                 : ac-3\nDuration                                 : 1h 28mn\nBit rate mode                            : Constant\nBit rate                                 : 128 Kbps\nChannel count                            : 2 channels\nChannel positions                        : Front: L R\nSampling rate                            : 48.0 KHz\nBit depth                                : 16 bits\nCompression mode                         : Lossy\nDelay relative to video                  : 40ms\nStream size                              : 80.8 MiB (11%)\n\n\n &lt;a href=&quot;\nhttp://lookpic.com/O/i2/1224/tigK7OhV.png&quot; rel=&quot;nofollow&quot; target=&quot;_NEW&quot;&gt;\nhttp://lookpic.com/O/i2/1224/tigK7OhV.png&lt;/a&gt;","torrent":{"xt":"urn:btih:7dfe15eb2fa2e89357967d2e755134f2c50888af","amp;dn":"The+Karen+Carpenter+Story+1989-TV+x264+AC3+-+MaryJane","amp;tr":["udp%3A%2F%2Ftracker.openbittorrent.com%3A80","udp%3A%2F%2Fopen.demonii.com%3A1337","udp%3A%2F%2Ftracker.coppersurfer.tk%3A6969","udp%3A%2F%2Fexodus.desync.com%3A6969"],"infoHash":"7dfe15eb2fa2e89357967d2e755134f2c50888af","infoHashBuffer":{"type":"Buffer","data":[125,254,21,235,47,162,232,147,87,150,125,46,117,81,52,242,197,8,136,175]},"announce":[],"urlList":[]}}